<svg xmlns="http://www.w3.org/2000/svg" viewBox="0 0 729.4 336.95"><defs><style>.cls-1{fill:#1c2818;}.cls-2{fill:#cf9e59;}</style></defs><g id="Camada_2" data-name="Camada 2"><g id="Camada_1-2" data-name="Camada 1"><path class="cls-1" d="M627.38,245.84q-2.39,2.52-4.87,4.94c-56.34,53.79-138,75.58-213.82,82.58-91.81,7-190.12-6.23-269.65-55a211.14,211.14,0,0,1-35.19-27.46l-4.54.05a211.76,211.76,0,0,0,38.07,30c91.06,55.91,214.22,66.1,317.78,47.37,61.42-11.84,128.57-35.81,172.31-82.52Z"/><path class="cls-1" d="M148.79,52.85c77.79-44.09,171.72-56,259.9-49.29,57.69,5.33,118.77,19.25,169.5,49.29h1c-37.89-22.57-82.25-36.21-124-44.26C353.59-9.79,233.11-.29,142.64,52.85Z"/><path class="cls-2" d="M12.94,173.68c-3.49-4.25-7-8.59-10.49-12.93L0,157.7l2.44-3c3.47-4.33,7-8.68,10.5-13V58l5.4.57C29.82,59.83,41.46,61,52.91,62.1l4.41.43v80.28c3.24,3.91,6.53,7.83,9.79,11.68l2.67,3.15-2.67,3.15c-3.26,3.87-6.55,7.79-9.79,11.7v29.07c16.55-.86,33.26-1.67,49.76-2.39l5.08-.22.13,47.58-4.5.36C78.07,249.24,48,252,18.34,255.19l-5.4.58Z"/><path class="cls-2" d="M119.24,172.15c-3.46-3.78-6.93-7.61-10.35-11.41L106,157.5l2.9-3.26c3.39-3.82,6.87-7.7,10.36-11.55V67.41l5.24.39c31.76,2.34,64,4.24,95.78,5.65l4.67.21v44.67l-5-.12c-18.66-.46-37.51-1-56.13-1.64v16.92q19.09.27,38.19.48l4.83.05v45l-4.83.06q-19.1.21-38.19.47v17.26c18.62-.64,37.47-1.19,56.13-1.64l5-.13v44.68l-4.67.21c-31.8,1.4-64,3.3-95.78,5.64l-5.24.39Z"/><path class="cls-2" d="M264.78,238.27c-11.65,0-20.63-3.13-26.71-9.31s-9.14-15.3-9.14-27.13V171.36q-5.16-5.24-10.33-10.53l-3.32-3.41L218.6,154q5.16-5.3,10.33-10.54V111.59c0-23.84,12.4-36.45,35.85-36.45l1.76,0c11,.33,22.21.6,33.23.82,23.68.63,36.6,12.75,37.4,35.06v25.68l-4.89,0q-17.65,0-35.31-.17l-4.84,0V121.38a2,2,0,0,0-.17-.9,4.24,4.24,0,0,0-2.37-.45l-13.12-.17h-.16c-1.65,0-2.09.38-2.09.38A3.07,3.07,0,0,0,274,122v69.44a3.34,3.34,0,0,0,.28,1.86,3.66,3.66,0,0,0,2.07.38l6.33-.09V150.5h54.53v49.9c0,23.57-12.92,36.37-37.37,37-11.05.22-22.22.5-33.24.83l-1.78,0"/><path class="cls-2" d="M458.05,238.15c-11.54-.33-23.25-.61-34.8-.82l-4.79-.09V177.5H396.88V237l-4.92,0c-9.28-.08-18.67-.12-27.93-.12l-11.67,0v-66l-13.58-13.38L352.36,144V76.61l11.65,0c30.11,0,60.64-.43,90.74-1.27l8.32-.24v68.2q5.28,5.31,10.54,10.66l3.37,3.43-3.37,3.42q-5.26,5.35-10.54,10.66V238.3ZM396.88,134.93l21.58-.14V120c-7.2.06-14.42.12-21.58.16Z"/><path class="cls-2" d="M566.08,243c-1.15,0-2.35,0-3.56-.11-10.68-.65-21.52-1.26-32.23-1.81-24.37-1.45-37.23-15-37.23-39.13V171.69q-5.31-5.46-10.63-10.86l-3.38-3.42,3.38-3.43q5.32-5.39,10.63-10.84V111.5c0-24.15,12.86-37.67,37.19-39.12,10.75-.55,21.59-1.16,32.26-1.81,1.2-.07,2.38-.11,3.51-.11,15,0,33.17,6.2,34.12,35.74v29.85l-4.78.1q-17.57.38-35.14.7l-5,.09v-18c-.07-1.1-.18-1.4-2.09-1.4h-.32l-12.05.37c-2.55.07-2.78.55-2.72,2.75v22.28q5.35,5.53,10.69,11.16l3.2,3.37-3.2,3.36q-5.34,5.61-10.69,11.16v20.82c-.07,2.42.29,2.8,2.72,2.87l12.05.37h.31a3.12,3.12,0,0,0,1.75-.32,3.83,3.83,0,0,0,.35-2.25V174.55l5,.09q17.57.3,35.13.65l4.79.09v29.7c0,31.3-18.53,37.88-34.07,37.88"/><path class="cls-2" d="M676.58,251.83c-11.45-1.1-23.09-2.16-34.59-3.15l-4.47-.38V212.05c-3.34-4-6.77-8-10.19-11.93l-2.84-3.28,2.93-3.2c3.39-3.7,6.78-7.44,10.1-11.14V166c-14-30.36-28.35-60.05-43.73-90.72l-3.27-6.53,7.28-.52c13.58-1,27.34-2.06,40.89-3.2l3.48-.3,1.4,3.2c5.44,12.38,10.87,24.93,16.19,37.44,5.56-13.63,11.08-27.4,16.47-41.07l1.09-2.78,3-.29c13.62-1.33,27.39-2.76,40.93-4.25l8.18-.91-3.14,7.62C712,98.22,697.13,132.65,681.93,166v17.1c3.62,4.41,7.22,8.85,10.72,13.22l2.55,3.19-2.69,3.07c-3.47,4-7,8-10.58,12v37.78Z"/><path class="cls-1" d="M107.4,242q0-19-.11-38-27.44,1.2-54.85,2.66v-36q5.48-6.61,11-13.09-5.47-6.46-11-13.07V67q-17.31-1.65-34.62-3.49v80q-5.77,7-11.57,14.26,5.79,7.22,11.57,14.23v78.41q44.75-4.77,89.58-8.31M45.57,167.49l1.13-1.36c2.73-3.31,5.52-6.65,8.3-10-2.78-3.3-5.56-6.63-8.3-9.94l-1.13-1.37V71.23l2,.19v74.92l1.13,1.36c2.74,3.31,5.53,6.64,8.3,9.94-2.78,3.31-5.56,6.65-8.3,10L47.53,169v41.34l-2,.1ZM22.73,243.21c25.82-2.69,51.93-5.11,77.79-7.19l-.08-26.75,2-.1.08,28.32c-26.51,2.13-53.29,4.62-79.75,7.4Z"/><path class="cls-1" d="M220.05,113.33v-35q-48-2.13-95.93-5.66v71.9q-5.81,6.39-11.6,12.91,5.81,6.45,11.6,12.78v70.49q47.92-3.54,95.93-5.66v-35q-30.59.75-61.13,1.82V174.77q21.5-.3,43-.53V138.85q-21.52-.24-43-.55V111.52q30.56,1.07,61.13,1.81m-6.88,115.59V205.17l2,0V230.4c-28.61,1.3-57.53,3-86.11,5.07v-1.61C157,231.86,185.22,230.2,213.17,228.92Zm-18.11-61V143.68l2,0v25.68q-19.09.23-38.18.48l-4.84.07v35.51l-2,.07v-37l4.84-.07Q176,168.12,195.06,167.91ZM154,106.44V141.7l-2,0V105l5.08.18c18.55.65,37.38,1.21,56,1.69V82.92l2,.1V108.3c-18.67-.47-37.5-1-56-1.69Z"/><path class="cls-1" d="M332.29,131.83V111.22c-.71-19.78-11.58-29.79-32.62-30.35Q283,80.54,266.42,80c-21.74-.55-32.61,9.85-32.61,31.55v33.88q-5.87,5.94-11.72,11.95,5.86,6,11.72,11.94v32.47c0,21.7,10.87,32.1,32.61,31.54q16.62-.5,33.25-.82c21.75-.58,32.62-11.17,32.62-32.14v-45H287.52v33.35l9.49-.09v3.5q-.11,6.13-7.36,6.23-6.56.07-13.11.18c-5.11.07-7.6-2.34-7.46-7.26V122.13q-.21-7.27,7.46-7.15l13.11.17q7.26.09,7.36,6.23v10.28q17.64.12,35.28.17m-30.37-6.51q11.74.08,23.5.12v-15.6c-.33-8.9-2.81-15.29-7.69-19.46,6.19,4.06,9.28,10.91,9.65,20.93v15.6q-12.74,0-25.46-.13Zm-9.49,58.45v-1.49l7.52-.06v1.49Zm5.15,42.4c19.25-.51,27.84-8.91,27.84-27.23V160.3h2v40.11c0,18.33-8.58,26.72-27.84,27.23-11,.22-22.22.49-33.27.83h-1.49c-8.27,0-14.58-1.85-18.77-5.49,4.1,2.67,9.73,4,16.81,4l1.49,0C275.36,226.66,286.56,226.38,297.58,226.17Zm-7.87-115.92-13.09-.18h-.31c-3.89,0-7,1.13-9.12,3.35a11.71,11.71,0,0,0-3,8.79v69c-.09,3.72.93,6.71,3.05,8.89l.25.23a9.93,9.93,0,0,1-2.21-1.7c-2.12-2.18-3.14-5.17-3.05-8.89v-69c-.09-3.67.92-6.62,3-8.78s5.22-3.35,9.11-3.35h.31q6.56.1,13.1.18c3.87,0,6.95,1.18,9.05,3.2A14.46,14.46,0,0,0,289.71,110.25Z"/><path class="cls-1" d="M458.19,145.33V80.14l-3.3.1q-47.53,1.32-95.09,1.26h-2.56v64.55l-11.51,11.34,11.51,11.34v63.19q17.38,0,34.76.11v-59.4q15.67,0,31.34,0v59.83q17.43.31,34.85.82V169.48q6-6,11.94-12.07-6-6.07-11.94-12.08m-31.9,22.38h-10q-12.17,0-24.33,0h-4.9v59.35C379.41,227,371.67,227,364,227h-1.88v-1.47c7.62,0,15.32,0,23,.08V166.26H390l24.32,0h11.94ZM392,139.84v-24.5q15.67-.07,31.34-.23v24.52Q407.67,139.75,392,139.84Zm34.29-29.67-3,0c-10.43.11-21,.18-31.31.23l-4.89,0v32.83h-2V109l4.88,0c10.35,0,20.89-.13,31.32-.23l5,0ZM454.71,166l-1.43,1.43v60.77c-8.32-.22-16.71-.42-25-.59V226.2c7.68.16,15.4.34,23.07.55V166l1.43-1.43,8.52-8.62-8.52-8.62-1.43-1.43V85.24l2,0v62.16l1.43,1.44q4.26,4.29,8.53,8.61Q459,161.73,454.71,166Z"/><path class="cls-1" d="M595.27,131.27V106.36c-.71-21.94-11.53-32.12-32.46-30.92q-16.14,1-32.27,1.81C508.81,78.54,498,89.84,498,111.5v33.62q-6,6.18-12.05,12.29,6,6.12,12.05,12.3v32.2c0,21.66,10.86,33,32.59,34.26q16.14.83,32.27,1.81c21.64,1.25,32.46-9.61,32.46-32.9V180.17q-17.57-.36-35.13-.65v13.81q.23,7.81-7.45,7.57l-12-.37q-7.67-.24-7.46-7.88V170q6-6.22,12-12.54-6-6.33-12-12.56V120.77q-.21-7.55,7.46-7.77l12-.37q7-.22,7.45,6.1V132q17.58-.32,35.13-.7m-30.22-5.81q11.67-.22,23.34-.47V105c-.33-10-2.79-17-7.65-21.16,6.18,4,9.24,11.35,9.62,22.64v20l-25.31.5ZM561.13,231.6c1,.06,2,.09,3,.09,16.8,0,24.28-8.66,24.28-28.08V184.94l2,0v20.1c0,19.42-7.49,28.09-24.28,28.09-1,0-2,0-3-.09-10.69-.66-21.56-1.27-32.3-1.82-8.46-.5-14.91-2.62-19.47-6.48,4.39,2.93,10.2,4.58,17.51,5C539.57,230.34,550.44,231,561.13,231.6Zm-8-123.89h-.64l-12,.37c-7.84.24-12.4,5-12.22,12.74v26l1.38,1.43q4.4,4.54,8.79,9.14-4.4,4.6-8.79,9.14L528.29,168v24.58c-.1,4.11,1.13,7.38,3.45,9.6-3.58-2.09-5.53-5.92-5.41-11.07V166.53l1.38-1.43q4.39-4.54,8.78-9.14-4.38-4.61-8.78-9.14l-1.38-1.43v-26c-.19-7.74,4.37-12.5,12.22-12.74l12-.37h.64a12.1,12.1,0,0,1,8.61,3.06A13.38,13.38,0,0,0,553.17,107.71Z"/><path class="cls-1" d="M677.05,165c14.91-32.71,29.81-67,44.7-103.14q-20.47,2.26-41,4.26-10.47,26.58-20.94,52-10.35-24.58-20.72-48.16-20.48,1.73-41,3.21c14.75,29.43,29.5,59.93,44.24,91.82v19.46q-5.68,6.34-11.38,12.56,5.7,6.58,11.38,13.33v33.56q17.33,1.49,34.65,3.16V212.71q5.9-6.59,11.79-13.32-5.9-7.35-11.79-14.52ZM634.74,75.17l1.28-.11c6.52,14.88,13,30,19.29,44.89l3.28,7.77-.67,1.61-4.57-10.85C647.27,104.07,641,89.53,634.74,75.17Zm47.69,124.08c-3,3.4-6,6.81-9,10.18l-1.25,1.4v30.74c-8.25-.78-16.56-1.53-24.83-2.25V238c7.62.67,15.27,1.36,22.87,2.08V209.36l1.25-1.4c3-3.37,6.05-6.78,9-10.18-3-3.74-6.1-7.52-9.18-11.27l-1.11-1.36V162.42l.44-1c13.92-30.53,27.6-62,40.73-93.57l2.7-.28c-13.36,32.19-27.29,64.22-41.47,95.32l-.44,1v22.73l1.12,1.36C676.34,191.73,679.41,195.51,682.43,199.25Z"/><path class="cls-1" d="M316.55,42.44V38.38c1.32-.31,2.65-.61,4-.89l0,4.31c-1.34.2-2.67.42-4,.64"/><path class="cls-1" d="M329.53,52.57q-.12-12-.25-23.91l-2,.48c0-1.56,0-3.13,0-4.69,2.67-.8,5.37-1.49,8.07-2.08l.06,5-2,.38q.07,6.49.14,13,2-5.3,4-10.87c1.39,3.31,2.78,6.73,4.17,10.23l-.12-13.68c-.68.09-1.36.18-2,.29,0-1.73,0-3.45-.05-5.18,2.73-.48,5.46-.86,8.21-1.14l0,5.36-2.05.19q.1,13.31.2,26.6H341.7c-1.39-3.58-2.78-7.09-4.17-10.5-1.32,3.59-2.63,7.1-3.94,10.5Z"/><path class="cls-1" d="M354.67,52.57q0-8.16,0-16.32l2.05-2.75c2.73,0,5.47,0,8.2.09l0-8.14q-3.09-.14-6.18-.14V28c-1.38,0-2.75,0-4.12.06,0-1.81,0-3.62,0-5.44.69-.93,1.37-1.86,2.06-2.78,3.45-.06,6.9,0,10.34.29L369,23q0,6.7-.08,13.43c-.68.86-1.37,1.73-2,2.62q-4.1-.13-8.18-.13v8.18c2,0,4.07,0,6.1,0,0-.91,0-1.82,0-2.72,1.36,0,2.72,0,4.07.08,0,2.68,0,5.37,0,8Z"/><path class="cls-1" d="M375.85,42.13c2.78-6.83,5.57-13.33,8.34-19.3,1.35.32,2.7.67,4,1q-.11,9.57-.2,19.14l2,.19c0,1.57,0,3.13-.05,4.69l-2-.09c0,1.59,0,3.18-.05,4.77h-4.06c0-1.65,0-3.3.05-5-2.7-.1-5.41-.19-8.11-.27,0-1.74,0-3.48,0-5.22m8.24-9.56q-2.08,4.73-4.17,9.8l4.06.29C384,39.3,384.05,35.93,384.09,32.57Z"/><path class="cls-1" d="M396.9,41.8l0-4.31c1.32.28,2.65.58,4,.89v4.06c-1.33-.22-2.66-.44-4-.64"/><path class="cls-1" d="M231.23,290.61c-.8-1-1.61-2-2.41-3V263.21c.81-.8,1.63-1.62,2.44-2.45h12.2c.81.91,1.62,1.83,2.42,2.76l0,5.51-4.87-.26c0-.89,0-1.78,0-2.67-2.43-.08-4.87-.17-7.3-.27q0,10.14-.05,20.28l7.25,1.35c0-.89,0-1.78,0-2.67l4.84.76,0,5.52c-.81.76-1.62,1.51-2.43,2.24q-6-1.28-12.06-2.7"/><path class="cls-1" d="M256.93,296l-2.4-3.35q.12-14.51.22-29l2.46-2.91h12.2c.81,1,1.61,2.09,2.41,3.16q-.13,15.74-.28,31.47c-.82.93-1.64,1.85-2.46,2.75q-6.07-1-12.15-2.12m9.77-4.44.21-24.65-7.31-.21q-.09,11.89-.19,23.8Q263.05,291.08,266.7,291.58Z"/><path class="cls-1" d="M281.1,300c0-2.17,0-4.35,0-6.52l2.44.28q.12-13.19.23-26.37l-2.43-.05c0-2.18,0-4.36.05-6.54h9.76l-.06,6.75-2.43-.05q-.12,13.4-.23,26.79,3.66.39,7.33.73c0-1.14,0-2.28,0-3.42l4.89.39q0,5.21-.08,10.4-9.79-1-19.54-2.39"/><path class="cls-1" d="M309.15,303.17q0-3.53.05-7.06l2.45.18q.09-14.21.19-28.42l-2.44,0q0-3.52.05-7.07h9.75q0,3.6,0,7.2l-2.44,0q-.09,14.34-.17,28.68,3.68.24,7.35.42c0-1.21,0-2.42,0-3.63,1.63.08,3.26.15,4.9.21q0,5.47-.05,10.95-9.82-.53-19.62-1.39"/><path class="cls-1" d="M337.31,305q0-3.69,0-7.36l2.45.07q0-14.76.08-29.52h-2.44l0-7.37H357v11.15h-4.88v-3.71l-7.33,0q0,5.55,0,11.1c2.45,0,4.89,0,7.34.05q0,3.72,0,7.43c-2.45,0-4.9,0-7.35-.07q0,5.55,0,11.1c2.45.05,4.91.09,7.36.11,0-1.24,0-2.48,0-3.72l4.9,0c0,3.72,0,7.43,0,11.14q-9.82,0-19.64-.38"/><path class="cls-1" d="M368.56,305.24l-2.46-3.67q0-18.54,0-37.09l2.43-3.72h12.2l2.45,3.68,0,7.32-4.89.05c0-1.22,0-2.45,0-3.68l-7.33,0,.06,29.62c2.45-.05,4.91-.11,7.36-.19,0-1.23,0-2.46,0-3.69l4.91-.15q0,3.66,0,7.34l-2.43,3.76q-6.15.25-12.29.38"/><path class="cls-1" d="M396.28,304q0-3.6,0-7.2l2.45-.15q-.09-14.36-.17-28.72l-2.45,0c0,1.2,0,2.4,0,3.61l-4.88.07c0-3.63,0-7.26,0-10.89h19.51c0,3.51.05,7,.08,10.51l-4.88.11c0-1.18,0-2.35,0-3.53l-2.45,0,.18,28.47,2.46-.18q0,3.54,0,7.08c-3.27.28-6.54.54-9.81.76"/><path class="cls-1" d="M419.49,301.91l-.06-6.85,2.45-.23q-.12-13.62-.23-27.25l-2.44,0q0-3.42,0-6.86h9.76c0,2.22,0,4.45.05,6.67l-2.43.05q.1,13.42.23,26.86l2.44-.26c0,2.22,0,4.43.05,6.65q-4.87.64-9.77,1.18"/><path class="cls-1" d="M441.39,299l-2.46-2.85q-.15-16.1-.29-32.18c.8-1.09,1.61-2.16,2.41-3.23h12.2l2.46,3q.12,14.92.25,29.86c-.8,1.12-1.6,2.26-2.4,3.41q-6.07,1.07-12.17,2m9.68-7.68-.21-24.46-7.32.2q.12,12.63.23,25.26C446.2,292,448.64,291.69,451.07,291.34Z"/><path class="cls-1" d="M465.52,294.8c0-1.89,0-3.78,0-5.67l2.42-.4q-.07-11.19-.14-22.37l-2.44.08c0-1.89,0-3.79,0-5.68h7.32q3.7,8.46,7.37,16.09l0-10.92-2.44.09c0-1.76,0-3.51,0-5.26h9.76v4.89l-2.44.09,0,24.88-3.61.83c-2.83-5.52-5.68-11.46-8.55-17.76q0,7.11.08,14.2l2.41-.43,0,5.33q-4.83,1.05-9.67,2"/></g></g></svg>